<?xml version="1.0" standalone="no"?>
<!DOCTYPE svg PUBLIC "-//W3C//DTD SVG 20010904//EN"
 "http://www.w3.org/TR/2001/REC-SVG-20010904/DTD/svg10.dtd">
<svg version="1.0" xmlns="http://www.w3.org/2000/svg"
 width="256.000000pt" height="88.000000pt" viewBox="0 0 256.000000 88.000000"
 preserveAspectRatio="xMidYMid meet">

<g transform="translate(0.000000,88.000000) scale(0.100000,-0.100000)"
fill="#000000" stroke="none">
<path d="M333 859 l-33 -21 0 -386 0 -387 31 -17 c17 -10 36 -18 42 -18 7 1
91 47 187 103 l175 103 3 216 2 216 -35 21 -36 21 -147 -85 -147 -85 -3 42
c-2 23 0 44 5 45 4 2 55 31 112 65 l104 61 -38 20 c-27 13 -44 17 -54 10 -9
-5 -42 -24 -73 -42 l-58 -32 0 43 c0 39 4 45 36 64 l37 21 -35 21 c-42 26 -36
26 -75 1z m337 -408 l0 -169 -127 -73 c-71 -40 -138 -79 -150 -87 -23 -14 -23
-14 -23 30 l0 44 110 63 110 62 0 129 0 128 33 20 c17 11 35 21 40 21 4 1 7
-75 7 -168z m-152 -3 l-3 -83 -65 -37 c-36 -21 -68 -38 -73 -38 -4 0 -7 37 -5
82 l3 83 65 37 c36 21 68 38 73 38 4 0 7 -37 5 -82z"/>
<path d="M183 773 l-33 -17 0 -302 0 -302 35 -21 35 -20 0 339 c0 187 -1 340
-2 339 -2 0 -18 -8 -35 -16z"/>
<path d="M27 682 l-27 -17 2 -214 3 -215 33 -19 32 -19 0 251 c0 138 -3 251
-7 251 -5 0 -20 -8 -36 -18z"/>
<path d="M1980 641 c-17 -33 4 -63 42 -59 38 4 58 30 42 56 -17 26 -70 28 -84
3z"/>
<path d="M2200 650 c-40 -10 -70 -42 -70 -76 0 -15 -6 -24 -15 -24 -10 0 -15
-11 -15 -35 0 -24 5 -35 15 -35 12 0 15 -17 15 -95 l0 -95 40 0 40 0 0 95 c0
88 1 95 20 95 16 0 20 7 20 35 0 28 -4 35 -20 35 -11 0 -20 4 -20 10 0 5 9 15
20 22 13 9 20 24 20 45 0 18 -3 33 -7 32 -5 -1 -24 -5 -43 -9z"/>
<path d="M1410 463 l0 -173 39 0 40 0 3 48 3 47 33 -47 c32 -47 34 -48 84 -48
l50 0 -44 53 c-65 76 -65 72 -16 130 66 78 66 77 11 77 -46 0 -49 -3 -83 -49
l-35 -49 -5 90 -5 91 -38 1 -37 1 0 -172z"/>
<path d="M820 585 c0 -35 0 -35 45 -35 l45 0 0 -130 0 -130 40 0 40 0 0 130 0
130 40 0 c39 0 40 1 40 35 l0 35 -125 0 -125 0 0 -35z"/>
<path d="M1159 533 c-38 -23 -59 -65 -59 -116 0 -117 130 -177 220 -101 42 36
39 54 -9 54 -22 0 -43 -4 -46 -10 -9 -14 -58 -13 -73 2 -30 30 -13 38 78 38
l90 0 0 30 c0 43 -25 87 -60 105 -38 20 -108 19 -141 -2z m105 -59 c26 -26 18
-34 -34 -34 -54 0 -59 4 -33 32 20 22 46 23 67 2z"/>
<path d="M1736 529 c-104 -82 -50 -249 80 -249 37 0 94 36 111 70 12 24 11 25
-28 28 -27 2 -47 -2 -58 -12 -24 -22 -47 -20 -65 6 -31 45 -10 108 36 108 16
0 31 -6 34 -15 4 -10 20 -15 50 -15 24 0 44 2 44 5 0 20 -35 67 -60 80 -43 22
-112 19 -144 -6z"/>
<path d="M1980 420 l0 -130 40 0 40 0 0 130 0 130 -40 0 -40 0 0 -130z"/>
<path d="M2299 458 c22 -51 46 -109 54 -128 14 -32 13 -38 -10 -90 -14 -30
-27 -61 -30 -68 -4 -8 7 -12 38 -12 l44 0 75 177 c41 97 78 184 82 195 6 16 2
18 -36 18 l-44 0 -28 -80 c-16 -43 -31 -77 -34 -74 -3 3 -17 38 -31 77 l-26
72 -46 3 -46 3 38 -93z"/>
</g>
</svg>
