<?xml version="1.0" standalone="no"?>
<!DOCTYPE svg PUBLIC "-//W3C//DTD SVG 20010904//EN"
 "http://www.w3.org/TR/2001/REC-SVG-20010904/DTD/svg10.dtd">
<svg version="1.0" xmlns="http://www.w3.org/2000/svg"
 width="2000.000000pt" height="2000.000000pt" viewBox="0 0 2000.000000 2000.000000"
 preserveAspectRatio="xMidYMid meet">

<g transform="translate(0.000000,2000.000000) scale(0.100000,-0.100000)"
fill="#000000" stroke="none">
<path d="M4420 15725 c0 -2 215 -316 477 -697 262 -381 501 -729 532 -773 83
-121 244 -356 488 -710 121 -176 254 -368 294 -427 41 -60 241 -350 444 -645
204 -296 406 -589 449 -653 44 -63 219 -317 389 -565 171 -247 364 -529 430
-625 66 -96 144 -209 172 -250 65 -94 422 -613 567 -823 60 -86 111 -164 114
-172 4 -8 -23 -47 -67 -97 -102 -118 -152 -175 -360 -418 -511 -595 -994
-1157 -1160 -1350 -102 -118 -336 -390 -520 -605 -344 -401 -718 -836 -1249
-1454 -168 -195 -342 -397 -386 -450 -45 -53 -204 -238 -353 -411 -149 -173
-271 -318 -271 -323 0 -4 212 -6 472 -5 l472 3 336 390 c535 624 860 1001
1095 1275 121 140 330 383 464 540 135 157 311 362 392 455 80 94 258 301 395
460 137 160 309 360 382 445 74 85 178 207 232 270 263 310 546 634 556 637 6
2 80 -97 165 -219 84 -123 241 -351 349 -508 108 -157 223 -323 255 -370 239
-348 516 -749 603 -875 105 -152 289 -421 417 -608 39 -56 124 -181 191 -277
66 -96 287 -416 489 -710 202 -294 426 -619 497 -722 l130 -188 1644 0 c904 0
1644 3 1644 6 0 7 -69 110 -258 385 -59 85 -163 237 -232 338 -69 100 -170
247 -225 326 -55 79 -132 191 -171 248 -39 57 -192 278 -339 493 -148 214
-316 459 -375 544 -265 386 -1121 1630 -1315 1910 -28 41 -102 148 -163 238
-101 146 -193 279 -408 592 -40 58 -117 169 -171 248 -54 78 -125 182 -158
230 -396 575 -449 652 -540 785 -33 49 -88 128 -122 177 -35 49 -63 94 -63
101 0 10 45 66 136 169 31 35 105 121 464 540 102 118 196 229 211 245 15 17
98 113 185 215 87 102 240 280 339 395 99 116 318 370 486 565 168 195 469
546 669 779 554 644 1156 1345 1416 1648 129 150 234 275 234 278 0 3 -213 5
-472 5 l-473 -1 -220 -256 c-121 -140 -236 -274 -255 -296 -19 -23 -51 -60
-71 -82 -20 -22 -121 -139 -225 -260 -281 -328 -655 -763 -858 -999 -100 -115
-208 -241 -240 -280 -33 -39 -62 -73 -65 -76 -4 -3 -101 -115 -216 -250 -116
-134 -405 -472 -644 -750 -239 -278 -522 -607 -630 -732 -107 -126 -198 -228
-203 -228 -7 0 -49 59 -297 420 -70 102 -277 403 -461 670 -398 578 -379 551
-660 960 -123 179 -241 350 -262 380 -21 30 -76 109 -121 175 -46 66 -137 199
-203 295 -333 482 -814 1183 -854 1242 l-45 67 -1647 1 c-907 0 -1648 -2
-1648 -5z m2850 -743 l55 -4 150 -219 c83 -121 195 -285 250 -364 55 -80 142
-207 194 -282 52 -76 183 -266 291 -423 108 -157 322 -467 475 -690 153 -223
309 -450 347 -505 94 -135 137 -198 888 -1290 360 -522 694 -1008 743 -1080
90 -130 684 -992 782 -1135 165 -240 935 -1359 1060 -1540 206 -298 244 -354
482 -700 194 -283 812 -1181 1071 -1557 62 -89 112 -165 112 -168 0 -3 -334
-4 -741 -3 l-741 3 -158 230 c-425 619 -713 1038 -795 1155 -49 72 -175 255
-280 407 -104 152 -228 332 -275 400 -47 67 -134 194 -193 280 -368 536 -361
525 -699 1016 -139 201 -556 808 -646 940 -37 54 -119 173 -182 265 -259 374
-545 788 -691 1002 -36 52 -112 163 -169 245 -126 182 -801 1164 -989 1438
-75 108 -219 318 -321 465 -102 148 -266 386 -365 531 -99 144 -229 333 -290
421 -569 824 -794 1154 -789 1162 5 8 1323 9 1424 0z"/>
</g>
</svg>
